<svg width="0" height="0" class="hidden">
    <symbol xmlns="http://www.w3.org/2000/svg" viewBox="0 0 10 21.5" id="fb">
        <path d="M10 7l-.4 3.7h-3v10.7H2.2V10.7H0V7h2.2V4.8C2.2 1.8 3.5 0 7 0h3v3.7H8.1c-1.4 0-1.5.5-1.5 1.5V7H10z"
              fill="#79cbc1"></path>
    </symbol>
    <symbol xmlns="http://www.w3.org/2000/svg" viewBox="0 0 37.7 37.7" id="google">
        <path d="M24.1 0L21 1.8h-3.1c2.2 1.4 3.4 4.1 3.4 6.7 0 6-5.1 6.5-5.1 9.5 0 2.9 6.8 4.1 6.8 10.4 0 2.6-1.2 4.7-3.2 6.4-2.6 2.2-6.2 3-9.5 3C6.1 37.7 0 35.9 0 30.6c0-1.1.4-2.1.8-3.1 2-4.1 8.3-5.1 12.4-5.2-.7-1-1.5-2.1-1.5-3.4 0-.7.3-1.2.5-1.9-.5.1-1.1.1-1.6.1-4.4 0-8.2-3.2-8.2-7.8 0-4.3 3.3-8 7.5-8.9 1.4-.2 2.8-.4 4.3-.4h9.9zm-9.5 23.8h-1.1c-3.7 0-9.2 1.2-9.2 5.9 0 4.4 4.9 6 8.5 6 3.4 0 7.1-1.4 7.1-5.3 0-3.3-3-5-5.3-6.6zM11.1 1.6c-3 0-4.4 2.6-4.4 5.3 0 3.4 2.3 8.8 6.3 8.8 3.1 0 4.2-2.2 4.2-5-.1-3.4-1.9-9.1-6.1-9.1zm26.6 7.1h-5.8v5.8H29V8.7h-5.8V5.8H29V0h2.9v5.8h5.8v2.9z"
              fill="#79cbc1"></path>
    </symbol>
    <symbol xmlns="http://www.w3.org/2000/svg" viewBox="0 0 38.6 36.9" id="linked">
        <path d="M4.6 8.6C1.8 8.6 0 6.7 0 4.3S1.9 0 4.7 0c2.8 0 4.6 1.9 4.6 4.3S7.5 8.6 4.6 8.6zm4.2 28.3H.5V12h8.3v24.9zm29.8 0h-8.3V23.6c0-3.3-1.2-5.6-4.2-5.6-2.3 0-3.6 1.5-4.2 3-.2.6-.3 1.3-.3 2v13.9h-8.3c.1-22.5 0-24.9 0-24.9h8.3v3.6h-.1c1.1-1.7 3-4.2 7.5-4.2 5.4 0 9.5 3.6 9.5 11.2v14.3z"
              fill="#79cbc1"></path>
    </symbol>
    <symbol xmlns="http://www.w3.org/2000/svg" viewBox="0 0 39.6 32.1" id="twitter">
        <path d="M35.5 8v1.1c0 10.7-8.2 23.1-23.1 23.1-4.6 0-8.9-1.3-12.5-3.6.7.1 1.3.1 2 .1 3.8 0 7.3-1.3 10.1-3.5-3.6-.1-6.6-2.4-7.6-5.6.5.1 1 .1 1.5.1.7 0 1.5-.1 2.1-.3-3.7-.8-6.5-4-6.5-8v-.1c1.1.6 2.3 1 3.7 1C3 10.8 1.6 8.4 1.6 5.5c0-1.5.4-2.9 1.1-4.1 4 4.9 10 8.1 16.7 8.5-.1-.6-.2-1.2-.2-1.9 0-4.5 3.6-8.1 8.1-8.1 2.3 0 4.4 1 5.9 2.6 1.8-.4 3.6-1 5.1-2-.6 1.9-1.9 3.5-3.6 4.5 1.6-.2 3.2-.6 4.7-1.3-.9 1.7-2.3 3.2-3.9 4.3z"
              fill="#79cbc1"></path>
    </symbol>
</svg>